<svg xmlns="http://www.w3.org/2000/svg" width="485.475" height="215.497" viewBox="0 0 485.475 215.497">
  <g id="_404" data-name="404" transform="translate(-448.836 -283.83)">
    <g id="_404-2" data-name="404" transform="translate(531.129 303.171)">
      <ellipse id="Ellipse_196" data-name="Ellipse 196" cx="3.701" cy="3.701" rx="3.701" ry="3.701" transform="translate(215.088 161.301)" fill="#444"/>
      <ellipse id="Ellipse_197" data-name="Ellipse 197" cx="3.701" cy="3.701" rx="3.701" ry="3.701" transform="translate(215.088 128.885)" fill="#444"/>
      <ellipse id="Ellipse_198" data-name="Ellipse 198" cx="1.552" cy="1.552" rx="1.552" ry="1.552" transform="translate(120.11 159.749)" fill="#444"/>
      <path id="Path_3434" data-name="Path 3434" d="M610.918,314.4a2.38,2.38,0,0,0-.418,1.433,2.686,2.686,0,1,0,2.686-2.686,2.715,2.715,0,0,0-1.672.6c-2.567-1.612-15.4-8.835-29.848-1.97-4.418-6.328-11.4-11.88-22.207-14.148C537.67,292.255,512,294.643,512,294.643v85.963h45.966s30.266-4.776,31.46-40.176c0,0,1.075-15.163-7.1-27.7C585.487,311.179,597.247,306.761,610.918,314.4Zm-31.042,25.311v.358c-.418,11.581-4.537,20.357-12.238,25.968a32.245,32.245,0,0,1-10.626,5.015H524.536V303.717c1.373-.06,2.149-.06,3.761-.06a118.237,118.237,0,0,1,28.893,3.224l.179.06.179.06c10.148,2.149,16.715,7.94,20.118,17.73A44.066,44.066,0,0,1,579.875,339.714Z" transform="translate(-332.91 -192.024)" fill="#444"/>
      <path id="Path_3435" data-name="Path 3435" d="M222.148,416.119,213.731,416A1.732,1.732,0,0,0,212,417.731V419.1a1.732,1.732,0,0,0,1.731,1.731h7.82a2.391,2.391,0,1,1,0,4.776h-7.82A1.732,1.732,0,0,0,212,427.342v1.373a1.732,1.732,0,0,0,1.731,1.731l8.417-.119c2.985-.239,6.626-3.283,6.626-7.044S225.133,416.358,222.148,416.119Z" transform="translate(-212 -241.148)" fill="#444"/>
      <path id="Path_3436" data-name="Path 3436" d="M273.029,424.939h-1.791a2.115,2.115,0,0,1-2.089-2.089v-7.761a2.089,2.089,0,1,0-4.179,0v7.761a2.115,2.115,0,0,1-2.089,2.089h-1.791a2.089,2.089,0,0,0,0,4.179h11.939a2.089,2.089,0,0,0,0-4.179Z" transform="translate(-230.942 -239.939)" fill="#444"/>
      <ellipse id="Ellipse_199" data-name="Ellipse 199" cx="2.328" cy="2.328" rx="2.328" ry="2.328" transform="translate(33.968 162.853)" fill="#444"/>
      <path id="Path_3438" data-name="Path 3438" d="M704.139,417.386a6.789,6.789,0,0,0-6.686-5.671H678.529l-2.209-11.044A7.107,7.107,0,0,0,669.335,395H664.5l1.91,22.088a4.554,4.554,0,0,0,4.537,4.179h31.341a2.1,2.1,0,0,0,2.089-2.448ZM689.1,418.461a1.8,1.8,0,0,1-1.791-1.791,1.791,1.791,0,1,1,1.791,1.791Zm9.134-.657a1.134,1.134,0,1,1,1.134-1.134A1.133,1.133,0,0,1,698.229,417.8Z" transform="translate(-394.372 -232.684)" fill="#444"/>
      <ellipse id="Ellipse_200" data-name="Ellipse 200" cx="5.552" cy="5.552" rx="5.552" ry="5.552" transform="translate(78.263 169.957)" fill="#444"/>
      <path id="Path_3439" data-name="Path 3439" d="M399.642,233.973c-6.746-12.715-22.685-15.7-22.685-15.7s1.97-6.805-3.045-10.387l5.492-12.775a2.634,2.634,0,0,0-1.492-3.522,2.706,2.706,0,0,0-3.343,1.313l-6.149,12.954c-7.223-1.254-6.567,2.627-6.567,2.627l4.537,1.552-3.164,6.567-4.776-1.552a5.434,5.434,0,0,0,2.686,5.791L359.645,224H356.72a8.152,8.152,0,0,0-7.641,5.253l-2.567,6.686,1.134.6a3.21,3.21,0,0,0,4.477-1.492l.657-1.612a2.752,2.752,0,0,1,2.567-1.672h2.865a4.624,4.624,0,0,1,4.3,2.865l1.134,2.627a2.55,2.55,0,0,1,0,2.089l-.3.657a3.172,3.172,0,0,0,2.03,4.238l.239.06,3.224-6.925a8.382,8.382,0,0,0-.657-8.119l-2.149-3.1,1.492-3.4c3.761.6,6.149.06,7.1-1.731,0,0,28.057,2.567,24.476,37.609-.657,5.373-7.223,11.163-11.82,14.626a18.981,18.981,0,0,0-16.3-9.253h-9.731v-1.97a4.662,4.662,0,0,0-4.656-4.656H335.587c.06-3.224.119-9.85-.06-12.536-.358-4.835-6.029-13.432-15.581-13.432-13.491,0-14.387,11.7-13.074,10.924.955-.537,2.388-4.776,5.85-6.686,0,0,19.7-7.761,19.581,17.611,0,0-1.194-12.059-16.238-11.939,0,0-14.924.119-11.283,22.565-5.432.179-9.313,1.851-12.178,4.358l-7.343-5.671a11.845,11.845,0,1,0-15.282-11.342,11.663,11.663,0,0,0,1.134,5.015,10.956,10.956,0,0,0-2.806-.358,11.829,11.829,0,1,0,11.82,11.82,9.239,9.239,0,0,0-.06-1.313l9.134,5.85c-4.656,7.462-3.88,17.252-3.88,17.252v53.13h26.326l-3.582-3.582h-7.7v-7.462l-5.432-5.432,5.432-5.432v-7.761h7.82l5.432-5.432,5.432,5.432h7.582v7.88l5.432,5.432-5.432,5.432v7.522h-7.522l-3.582,3.582h31.58l-.9-30.863s-.9-7.044,5.253-7.223,6.208,7.044,6.208,7.044v18.8c14.924-1.194,13.491,3.283,13.491,3.283,2.985.9,3.224,5.373,3.224,5.373h15.521V282.984a19.1,19.1,0,0,0-.657-4.955C396.06,273.672,413.491,259.345,399.642,233.973ZM281.979,246.868a4.477,4.477,0,1,1-4.477,4.477A4.51,4.51,0,0,1,281.979,246.868Zm-13.551,26.267a5.253,5.253,0,1,1,5.253-5.253A5.223,5.223,0,0,1,268.428,273.135ZM306.753,264c-.478-3.94-1.254-17.67,10.148-18.625,10.686-.9,12.656,8.358,13.014,12.059H318.693a4.662,4.662,0,0,0-4.656,4.656v1.97h-7.283Z" transform="translate(-229.924 -150.637)" fill="#444"/>
    </g>
    <text id="_" data-name="+" transform="translate(857.692 469.207) rotate(33.715)" fill="#f6303f" font-size="39" font-family="B_Yekan_Medium, IRANYekan"><tspan x="0" y="0">+</tspan></text>
    <text id="_2" data-name="+" transform="translate(468.818 379.465) rotate(33.715)" fill="#f6303f" font-size="66" font-family="B_Yekan_Medium, IRANYekan"><tspan x="0" y="0">+</tspan></text>
    <text id="_3" data-name="+" transform="translate(863.864 355.219) rotate(26.494)" fill="#f6303f" font-size="41" font-family="B_Yekan_Medium, IRANYekan"><tspan x="0" y="0">+</tspan></text>
    <text id="_4" data-name="+" transform="translate(474.872 480.552) rotate(26.494)" fill="#f6303f" font-size="25" font-family="B_Yekan_Medium, IRANYekan"><tspan x="0" y="0">+</tspan></text>
    <g id="_x23_000000ff" transform="translate(552.698 291.053) rotate(-21)">
      <path id="Path_2979" data-name="Path 2979" d="M5.573,2.558A14.5,14.5,0,0,0,2.625.063,2.116,2.116,0,0,0,0,2.007c-.032,1.2,1.069,1.912,1.814,2.657.778.68,1.523,1.685,2.689,1.555A2.285,2.285,0,0,0,6.383,4.5,2.419,2.419,0,0,0,5.573,2.558Z" transform="translate(13.768 0)" fill="#444"/>
      <path id="Path_2980" data-name="Path 2980" d="M4.875,2.2C4.065,1.3,3.32.065,1.959,0A2.088,2.088,0,0,0,.34,3.175C1.6,4.86,3.093,6.318,4.389,7.97c.065.065.227.162.292.227a2.07,2.07,0,0,0,2.948-.259A2.363,2.363,0,0,0,8.05,6.026C7.143,4.633,5.912,3.5,4.875,2.2Z" transform="translate(20.946 7.223)" fill="#444"/>
      <path id="Path_2981" data-name="Path 2981" d="M4.421.439a2.088,2.088,0,0,0-3.24,2.236A14.777,14.777,0,0,0,2.412,4.586,2.691,2.691,0,0,0,.4,5.461a2.036,2.036,0,0,0,.81,3.078A39.094,39.094,0,0,0,5.1,9.252c1.231.194,2.462.745,3.726.454A2.151,2.151,0,0,0,9.9,6.984C9.6,6.174,8.73,5.85,7.984,5.591,6.753,3.906,5.814,1.994,4.421.439Z" transform="translate(28.107 17.475)" fill="#444"/>
      <path id="Path_2982" data-name="Path 2982" d="M8.916.23A2.277,2.277,0,0,0,7.458.036,33.065,33.065,0,0,0,1.27,1.17,2.059,2.059,0,0,0,.686,4.6c1.1.972,2.56.227,3.791.032,1.458-.389,3.013-.259,4.439-.745A2.068,2.068,0,0,0,8.916.23Z" transform="translate(15.091 21.993)" fill="#444"/>
      <path id="Path_2983" data-name="Path 2983" d="M3.033.224a2.406,2.406,0,0,0-2.2.1,2.156,2.156,0,0,0-.292,3.11,25.485,25.485,0,0,0,3.6,1.912c1.2.583,2.3,1.588,3.726,1.458A2.076,2.076,0,0,0,8.8,3.269,37.652,37.652,0,0,0,3.033.224Z" transform="translate(40.77 25.467)" fill="#444"/>
      <path id="Path_2984" data-name="Path 2984" d="M8.811,2.288A2.074,2.074,0,0,0,6.349.052,10.5,10.5,0,0,0,3.886,1.51,24.347,24.347,0,0,0,.647,4.329,1.985,1.985,0,0,0,.355,6.921a2.056,2.056,0,0,0,3.013.454,27.375,27.375,0,0,1,3.5-2.916C7.677,3.94,8.746,3.389,8.811,2.288Z" transform="translate(3.792 25.67)" fill="#444"/>
      <path id="Path_2985" data-name="Path 2985" d="M4.257,2.08A2.765,2.765,0,0,0,2.345.007,2.136,2.136,0,0,0,.175,1.238C-.311,2.274.337,3.311.661,4.283c.583,1.361.875,2.786,1.328,4.179A2.009,2.009,0,0,0,3.544,9.856,2.051,2.051,0,0,0,5.974,7.62,35.448,35.448,0,0,0,4.257,2.08Z" transform="translate(35.82 28.826)" fill="#444"/>
      <path id="Path_2986" data-name="Path 2986" d="M2.765.137A2.064,2.064,0,0,0,.011,2.21c.1,1.166,1.231,1.782,2.009,2.527,1.2.94,2.171,2.138,3.369,3.078a2.027,2.027,0,0,0,3.11-1.1,2.293,2.293,0,0,0-.842-2.4A35.128,35.128,0,0,0,2.765.137Z" transform="translate(51.956 32.228)" fill="#444"/>
      <path id="Path_2987" data-name="Path 2987" d="M4.049.686A2.061,2.061,0,0,0,.615,1.27a14.766,14.766,0,0,0-.551,5.7C.162,7.814.1,8.851.777,9.5a2.162,2.162,0,0,0,2.462.389,2.187,2.187,0,0,0,1.037-1.62,26.116,26.116,0,0,1,0-4.212C4.373,2.922,4.957,1.594,4.049.686Z" transform="translate(0 35.631)" fill="#444"/>
      <path id="Path_2988" data-name="Path 2988" d="M6.192,1.877A2.05,2.05,0,0,0,3.309.193C2.142.711,2.077,2.137,1.753,3.206,1.462,4.664.555,5.862.036,7.256A2.134,2.134,0,0,0,2.3,9.75c1.3-.259,1.879-1.523,2.43-2.592A15.3,15.3,0,0,0,6.192,1.877Z" transform="translate(35.991 41.632)" fill="#444"/>
      <path id="Path_2989" data-name="Path 2989" d="M3.615.751A2.053,2.053,0,0,0,.342.881,2.3,2.3,0,0,0,.537,3.538c1.134,1.555,2.106,3.24,3.3,4.763a2.244,2.244,0,0,0,1.847.81,2.174,2.174,0,0,0,1.62-1.264,2.477,2.477,0,0,0-.551-2.462C5.688,3.829,4.716,2.242,3.615.751Z" transform="translate(61.053 41.721)" fill="#444"/>
      <path id="Path_2990" data-name="Path 2990" d="M3.056.188a2.194,2.194,0,0,0-3.045,2.2A15.827,15.827,0,0,0,4.676,8.353a2.074,2.074,0,0,0,3.3-1.458c.13-1.3-1.1-2.041-1.847-2.883C4.838,2.942,4.352,1.225,3.056.188Z" transform="translate(2.419 48.278)" fill="#444"/>
      <path id="Path_2991" data-name="Path 2991" d="M9.561,2.471A2.166,2.166,0,0,0,7.034.041,37.566,37.566,0,0,1,2.952,2.18C1.947,2.6.587,2.763.166,3.9A2.085,2.085,0,0,0,2.4,6.716,19.179,19.179,0,0,0,8.719,3.735,2.374,2.374,0,0,0,9.561,2.471Z" transform="translate(25.623 52.313)" fill="#444"/>
      <path id="Path_2992" data-name="Path 2992" d="M3.823,1.145A2.079,2.079,0,0,0,1.1.173C-.389.951-.162,2.765.583,4,1.1,5.033,1.36,6.458,2.591,6.847A2.068,2.068,0,0,0,5.281,4.709,20.081,20.081,0,0,0,3.823,1.145Z" transform="translate(67.875 53.056)" fill="#444"/>
      <path id="Path_2993" data-name="Path 2993" d="M5.909.306C4.386.4,2.9-.212,1.405.079A2.065,2.065,0,0,0,.854,3.708c1.361.713,2.981.518,4.471.616.713,0,1.426-.032,2.138,0,.68-.032,1.49.1,2.041-.454A2.059,2.059,0,0,0,9.343.792C8.338.014,7.043.371,5.909.306Z" transform="translate(12.688 55.871)" fill="#444"/>
    </g>
    <g id="_x23_000000ff-2" data-name="_x23_000000ff" transform="translate(922.465 371.295) rotate(54)">
      <path id="Path_2979-2" data-name="Path 2979" d="M5.573,2.558A14.5,14.5,0,0,0,2.625.063,2.116,2.116,0,0,0,0,2.007c-.032,1.2,1.069,1.912,1.814,2.657.778.68,1.523,1.685,2.689,1.555A2.285,2.285,0,0,0,6.383,4.5,2.419,2.419,0,0,0,5.573,2.558Z" transform="translate(13.768 0)" fill="#444"/>
      <path id="Path_2980-2" data-name="Path 2980" d="M4.875,2.2C4.065,1.3,3.32.065,1.959,0A2.088,2.088,0,0,0,.34,3.175C1.6,4.86,3.093,6.318,4.389,7.97c.065.065.227.162.292.227a2.07,2.07,0,0,0,2.948-.259A2.363,2.363,0,0,0,8.05,6.026C7.143,4.633,5.912,3.5,4.875,2.2Z" transform="translate(20.946 7.223)" fill="#444"/>
      <path id="Path_2981-2" data-name="Path 2981" d="M4.421.439a2.088,2.088,0,0,0-3.24,2.236A14.775,14.775,0,0,0,2.412,4.586,2.691,2.691,0,0,0,.4,5.461a2.036,2.036,0,0,0,.81,3.078A39.094,39.094,0,0,0,5.1,9.252c1.231.194,2.462.745,3.726.454A2.151,2.151,0,0,0,9.9,6.984C9.6,6.174,8.73,5.85,7.984,5.591,6.753,3.906,5.814,1.994,4.421.439Z" transform="translate(28.107 17.475)" fill="#444"/>
      <path id="Path_2982-2" data-name="Path 2982" d="M8.916.23A2.277,2.277,0,0,0,7.458.036,33.065,33.065,0,0,0,1.27,1.17,2.059,2.059,0,0,0,.686,4.6c1.1.972,2.56.227,3.791.032,1.458-.389,3.013-.259,4.439-.745A2.068,2.068,0,0,0,8.916.23Z" transform="translate(15.091 21.993)" fill="#444"/>
      <path id="Path_2983-2" data-name="Path 2983" d="M3.033.224a2.406,2.406,0,0,0-2.2.1,2.156,2.156,0,0,0-.292,3.11,25.485,25.485,0,0,0,3.6,1.912c1.2.583,2.3,1.588,3.726,1.458A2.076,2.076,0,0,0,8.8,3.269,37.652,37.652,0,0,0,3.033.224Z" transform="translate(40.77 25.467)" fill="#444"/>
      <path id="Path_2984-2" data-name="Path 2984" d="M8.811,2.288A2.074,2.074,0,0,0,6.349.052,10.5,10.5,0,0,0,3.886,1.51,24.347,24.347,0,0,0,.647,4.329,1.985,1.985,0,0,0,.355,6.921a2.056,2.056,0,0,0,3.013.454,27.378,27.378,0,0,1,3.5-2.916C7.677,3.94,8.746,3.389,8.811,2.288Z" transform="translate(3.792 25.67)" fill="#444"/>
      <path id="Path_2985-2" data-name="Path 2985" d="M4.257,2.08A2.765,2.765,0,0,0,2.345.006,2.136,2.136,0,0,0,.175,1.238C-.311,2.274.337,3.311.661,4.283c.583,1.361.875,2.786,1.328,4.179A2.009,2.009,0,0,0,3.544,9.856,2.051,2.051,0,0,0,5.974,7.62,35.449,35.449,0,0,0,4.257,2.08Z" transform="translate(35.82 28.826)" fill="#444"/>
      <path id="Path_2986-2" data-name="Path 2986" d="M2.765.137A2.064,2.064,0,0,0,.011,2.21c.1,1.166,1.231,1.782,2.009,2.527,1.2.94,2.171,2.138,3.369,3.078a2.027,2.027,0,0,0,3.11-1.1,2.293,2.293,0,0,0-.842-2.4A35.13,35.13,0,0,0,2.765.137Z" transform="translate(51.956 32.228)" fill="#444"/>
      <path id="Path_2987-2" data-name="Path 2987" d="M4.049.686a2.061,2.061,0,0,0-3.434.583,14.766,14.766,0,0,0-.551,5.7C.162,7.814.1,8.851.777,9.5a2.162,2.162,0,0,0,2.462.389,2.188,2.188,0,0,0,1.037-1.62,26.116,26.116,0,0,1,0-4.212C4.373,2.922,4.957,1.593,4.049.686Z" transform="translate(0 35.631)" fill="#444"/>
      <path id="Path_2988-2" data-name="Path 2988" d="M6.192,1.877A2.05,2.05,0,0,0,3.309.193C2.142.711,2.077,2.137,1.753,3.206,1.462,4.664.555,5.862.036,7.256A2.134,2.134,0,0,0,2.3,9.75c1.3-.259,1.879-1.523,2.43-2.592A15.3,15.3,0,0,0,6.192,1.877Z" transform="translate(35.991 41.632)" fill="#444"/>
      <path id="Path_2989-2" data-name="Path 2989" d="M3.615.751A2.053,2.053,0,0,0,.342.881,2.3,2.3,0,0,0,.537,3.538c1.134,1.555,2.106,3.24,3.3,4.763a2.244,2.244,0,0,0,1.847.81,2.174,2.174,0,0,0,1.62-1.264,2.477,2.477,0,0,0-.551-2.462C5.688,3.829,4.716,2.242,3.615.751Z" transform="translate(61.053 41.721)" fill="#444"/>
      <path id="Path_2990-2" data-name="Path 2990" d="M3.056.188a2.194,2.194,0,0,0-3.045,2.2A15.827,15.827,0,0,0,4.676,8.353a2.074,2.074,0,0,0,3.3-1.458c.13-1.3-1.1-2.041-1.847-2.883C4.838,2.942,4.352,1.225,3.056.188Z" transform="translate(2.419 48.278)" fill="#444"/>
      <path id="Path_2991-2" data-name="Path 2991" d="M9.561,2.471A2.166,2.166,0,0,0,7.034.041,37.566,37.566,0,0,1,2.952,2.18C1.947,2.6.587,2.763.166,3.9A2.085,2.085,0,0,0,2.4,6.716,19.179,19.179,0,0,0,8.719,3.735,2.374,2.374,0,0,0,9.561,2.471Z" transform="translate(25.623 52.313)" fill="#444"/>
      <path id="Path_2992-2" data-name="Path 2992" d="M3.823,1.145A2.079,2.079,0,0,0,1.1.173C-.389.951-.162,2.765.583,4,1.1,5.033,1.36,6.458,2.591,6.847A2.068,2.068,0,0,0,5.281,4.709,20.082,20.082,0,0,0,3.823,1.145Z" transform="translate(67.875 53.056)" fill="#444"/>
      <path id="Path_2993-2" data-name="Path 2993" d="M5.909.306C4.386.4,2.9-.212,1.405.079A2.065,2.065,0,0,0,.854,3.708c1.361.713,2.981.518,4.471.616.713,0,1.426-.032,2.138,0,.68-.032,1.49.1,2.041-.454A2.059,2.059,0,0,0,9.343.792C8.338.014,7.043.371,5.909.306Z" transform="translate(12.688 55.871)" fill="#444"/>
    </g>
    <path id="Path_4848" data-name="Path 4848" d="M519.611,185.722h15.82c1.791,5.97,4.179,16.715.6,26.087,0,0,16.775-9.372,18.267-26.087h75.4A13.6,13.6,0,0,0,643.3,172.111v-35.4A13.6,13.6,0,0,0,629.692,123.1H519.611A13.6,13.6,0,0,0,506,136.711v35.4A13.6,13.6,0,0,0,519.611,185.722Z" transform="translate(200.638 180.071)" fill="#f6303f"/>
    <text id="_404-3" data-name="404" transform="translate(739 350)" fill="#fff" font-size="41" font-family="IRANYekan-Bold, IRANYekan" font-weight="700"><tspan x="0" y="0">404</tspan></text>
  </g>
</svg>
